<?xml version="1.0" standalone="no"?>
<!DOCTYPE svg PUBLIC "-//W3C//DTD SVG 20010904//EN"
 "http://www.w3.org/TR/2001/REC-SVG-20010904/DTD/svg10.dtd">
<svg version="1.0" xmlns="http://www.w3.org/2000/svg"
 width="474.000000pt" height="843.000000pt" viewBox="0 0 474.000000 843.000000"
 preserveAspectRatio="xMidYMid meet">

<g transform="translate(0.000000,843.000000) scale(0.100000,-0.100000)"
fill="#000000" stroke="none">
<path d="M0 7539 c0 -843 1 -890 18 -885 39 11 108 15 121 7 11 -7 10 -14 -5
-40 -20 -33 -29 -38 -88 -46 -21 -2 -41 -6 -43 -8 -2 -2 -2 -71 -1 -153 l3
-149 107 162 c109 163 199 321 253 445 17 37 33 68 37 68 3 0 18 -24 33 -54
26 -54 26 -56 21 -223 -7 -229 -24 -308 -93 -447 -32 -64 -37 -86 -15 -72 5 3
32 52 60 108 42 87 70 170 88 261 5 30 10 31 56 14 42 -15 110 -19 102 -5 -9
15 10 39 27 35 11 -3 17 -1 14 3 -3 5 0 12 6 16 6 3 21 -6 34 -22 l23 -28 43
38 c24 21 48 42 52 46 4 4 1 7 -7 7 -8 0 -13 -4 -10 -9 3 -4 0 -8 -6 -8 -25 0
-1 24 55 55 50 28 61 31 73 19 7 -8 18 -14 23 -14 6 0 3 7 -5 16 -18 17 -21
28 -6 19 6 -3 10 -1 10 4 0 6 5 11 11 11 6 0 8 -7 5 -17 -9 -22 3 -10 18 18 6
11 27 30 46 42 l35 22 -23 -38 c-25 -44 -28 -54 -8 -38 14 12 46 5 46 -9 0 -4
6 -10 13 -13 10 -4 13 2 9 21 -6 35 6 23 17 -16 9 -28 6 -34 -26 -59 -19 -15
-40 -27 -45 -25 -5 1 -6 -2 -3 -8 8 -13 -26 -41 -39 -33 -5 4 -6 1 -2 -5 3 -6
-17 -36 -46 -68 -29 -31 -60 -64 -68 -73 -8 -9 -35 -32 -60 -51 -64 -48 -71
-57 -25 -30 22 13 105 89 184 169 151 154 195 175 99 48 -30 -40 -58 -78 -63
-86 -12 -20 14 -31 78 -31 54 0 57 -1 57 -26 0 -14 -4 -22 -10 -19 -5 3 -18 1
-27 -4 -16 -9 -15 -10 8 -11 33 0 48 -18 92 -105 20 -38 36 -64 37 -56 0 11 3
11 15 1 13 -11 33 -71 49 -145 7 -30 6 -30 -16 7 -42 67 -105 143 -141 171
-43 33 -47 33 -47 5 0 -46 13 -67 48 -84 55 -25 92 -54 92 -70 0 -7 -15 -20
-32 -27 -49 -21 -61 -39 -47 -71 7 -14 16 -23 22 -19 6 3 7 1 3 -5 -8 -14 17
-56 57 -97 19 -19 32 -25 34 -18 7 20 68 -26 81 -60 6 -17 9 -34 5 -40 -3 -5
0 -13 8 -17 12 -8 39 -80 39 -107 0 -23 -41 -13 -71 16 -36 36 -37 51 -4 51
14 0 25 4 25 10 0 5 -6 7 -13 4 -14 -5 -135 124 -183 196 -53 78 -66 125 -74
267 -8 138 -15 169 -33 138 -8 -15 -13 -10 -36 36 -14 30 -33 55 -42 57 -34 6
-215 -263 -317 -472 -44 -90 -52 -116 -47 -143 6 -32 5 -33 -14 -21 -17 10
-25 10 -41 0 -12 -7 -26 -10 -32 -6 -7 4 -8 3 -4 -4 12 -20 -19 -14 -76 15
-29 15 -78 32 -108 38 -69 14 -75 35 -29 102 l32 48 -41 -39 c-35 -34 -42 -37
-48 -22 -6 16 -1 80 11 151 4 23 1 20 -14 -15 -23 -53 -26 -127 -6 -153 11
-16 11 -25 0 -55 -11 -33 -10 -42 8 -77 11 -22 28 -52 38 -67 25 -35 25 -35
-16 -52 -59 -25 -46 -46 58 -94 114 -53 166 -96 274 -231 174 -218 266 -378
277 -481 3 -30 3 -48 0 -40 -10 24 -62 136 -116 248 -64 136 -152 222 -257
252 -27 8 -32 6 -36 -13 -3 -12 1 -51 9 -87 16 -66 22 -250 9 -250 -5 1 -26
39 -48 86 -21 48 -45 93 -53 103 -7 9 7 -24 31 -74 48 -98 100 -232 95 -247
-2 -5 -17 18 -33 51 -31 67 -56 82 -86 55 -24 -21 -24 -35 -1 -61 23 -26 56
-39 48 -18 -4 12 -2 13 14 2 11 -6 18 -17 16 -24 -3 -6 3 -18 13 -27 20 -18
36 -21 26 -6 -3 6 -2 10 4 10 20 0 21 -19 0 -25 l-21 -7 21 -15 c12 -8 18 -19
15 -25 -4 -6 6 -22 22 -35 23 -18 25 -23 11 -23 -10 0 -15 -5 -12 -11 4 -6 13
-8 21 -5 8 3 11 0 8 -8 -3 -9 -14 -12 -27 -8 -22 5 -22 5 -3 -16 22 -25 11
-30 -15 -6 -10 9 -35 22 -56 29 -31 11 -43 23 -68 71 -16 32 -57 86 -91 119
-56 56 -83 95 -66 95 5 0 14 -6 21 -12 15 -16 -31 89 -67 152 -49 86 -85 131
-94 118 -6 -10 -8 -10 -8 -1 0 8 -12 11 -37 7 -36 -4 -44 -9 -95 -53 l-28 -24
0 -185 0 -184 28 8 c45 12 75 7 95 -17 40 -49 -3 -94 -80 -83 l-43 6 0 -175 0
-175 45 -49 c44 -46 45 -47 20 -9 -27 42 -30 58 -16 85 8 13 24 18 70 20 62 2
90 -7 128 -42 l22 -20 -24 -29 c-13 -16 -27 -45 -30 -66 -3 -20 -8 -49 -10
-63 -3 -19 4 -34 26 -55 35 -33 36 -47 7 -62 -27 -14 -64 -9 -60 8 1 6 -2 9
-8 5 -5 -3 -10 -15 -10 -26 0 -10 -5 -19 -12 -19 -9 0 -9 -3 0 -12 10 -10 15
-10 21 1 7 10 12 9 27 -6 11 -11 44 -38 74 -60 75 -54 84 -67 70 -92 -6 -12
-18 -21 -28 -21 -9 0 -75 18 -147 41 -72 22 -138 43 -147 46 -17 5 -18 -7 -18
-159 l0 -164 38 -19 c138 -67 221 -97 285 -102 62 -6 67 -5 61 12 -6 15 -4 17
10 12 10 -4 24 -7 32 -7 23 0 16 -45 -11 -72 -14 -14 -45 -36 -70 -49 -44 -23
-45 -23 -59 -4 -8 11 -20 20 -28 20 -7 1 -12 6 -11 11 3 19 -27 11 -33 -8 -3
-10 -28 -33 -55 -50 -56 -37 -61 -48 -21 -48 20 0 33 -7 42 -25 7 -14 29 -30
49 -36 66 -21 72 -27 60 -53 -11 -24 -13 -24 -150 -23 l-139 2 0 -88 0 -88
137 6 c76 3 206 11 289 17 83 6 159 8 169 4 17 -6 17 -8 -1 -29 -12 -13 -13
-17 -3 -9 9 6 19 9 22 5 4 -3 9 2 13 11 11 28 52 19 70 -15 12 -24 13 -33 4
-39 -9 -6 -8 -14 5 -34 10 -14 19 -26 21 -26 2 0 26 9 54 20 67 26 101 25 146
-5 20 -14 33 -25 28 -25 -5 0 8 -11 28 -25 20 -14 45 -25 55 -25 10 0 38 -6
63 -14 25 -7 83 -17 130 -20 121 -10 138 -14 136 -34 -2 -11 -17 -19 -46 -24
-45 -8 -99 -43 -140 -92 -14 -17 -36 -39 -49 -51 -13 -11 -44 -45 -68 -75 -31
-37 -52 -55 -67 -54 -14 1 -16 0 -3 -3 19 -5 24 -33 6 -33 -7 0 -9 -9 -6 -22
3 -11 0 -36 -8 -55 -8 -19 -17 -58 -21 -86 -10 -76 -18 -87 -38 -50 -18 36
-46 47 -163 64 -45 6 -87 17 -93 23 -12 15 44 96 66 96 15 0 15 21 -1 33 -6 4
-4 11 5 17 13 8 12 10 -2 10 -10 0 -18 -8 -19 -17 0 -10 -3 -13 -5 -6 -3 7 13
43 36 81 22 38 43 85 46 104 6 33 4 35 -53 65 -57 30 -88 42 -171 63 -38 10
-41 13 -32 31 8 15 7 25 -5 41 -8 13 -15 31 -15 42 0 18 -2 18 -14 6 -22 -23
-96 -195 -96 -223 0 -38 -14 -40 -35 -4 -14 23 -19 51 -19 96 l0 64 -28 -58
c-15 -32 -30 -82 -34 -112 -7 -60 -18 -73 -34 -43 -23 43 12 151 65 200 24 22
55 70 55 84 0 3 -19 10 -42 17 -46 12 -165 7 -276 -12 l-62 -11 0 -1404 0
-1404 2324 0 2324 0 32 58 c18 31 39 64 46 73 12 13 14 262 12 1604 l-3 1589
-150 49 -150 48 -42 60 c-24 32 -43 64 -43 69 0 6 -5 10 -11 10 -6 0 -7 -5 -2
-12 46 -75 73 -124 73 -133 0 -11 -101 -65 -121 -65 -10 0 -39 59 -39 80 0 5
9 10 19 10 53 0 69 36 29 64 -28 20 -80 20 -133 1 -49 -18 -58 -11 -15 12 17
10 43 26 56 36 22 17 23 20 8 42 -9 13 -23 27 -32 30 -10 3 -31 18 -49 34 -18
15 -71 46 -118 67 -73 34 -86 44 -96 72 -10 31 -9 35 25 68 19 19 39 34 43 34
4 0 22 -21 38 -46 17 -25 64 -73 105 -107 41 -34 102 -85 136 -114 34 -29 69
-53 78 -53 36 0 8 34 -54 65 l-35 18 60 13 c33 7 85 13 115 13 48 1 198 -23
283 -44 l27 -7 0 801 c0 441 -4 801 -9 801 -4 0 -30 -12 -57 -26 -27 -15 -59
-32 -71 -39 -13 -7 -20 -14 -18 -17 3 -3 -4 -13 -15 -23 -11 -10 -20 -15 -20
-11 0 4 -12 -6 -26 -21 l-26 -28 21 31 c11 17 44 53 73 80 30 27 57 55 62 62
8 14 -20 56 -89 131 l-40 43 45 40 c59 53 116 81 146 74 13 -4 24 -4 24 -2 0
4 -69 44 -142 83 -33 17 -32 13 -11 72 15 43 15 49 -1 83 -16 34 -82 101 -206
210 l-53 46 43 41 c24 23 47 41 51 41 13 0 22 48 13 67 -6 15 -8 13 -12 -9 -2
-16 -25 -51 -55 -83 l-52 -54 -118 80 c-64 44 -117 78 -117 75 0 -2 39 -33 88
-67 167 -120 248 -187 321 -268 40 -45 71 -85 67 -88 -3 -3 -24 -6 -47 -5 -52
2 -80 -13 -154 -84 -45 -43 -91 -73 -188 -121 -135 -67 -180 -82 -106 -35 24
16 72 59 106 96 54 57 66 66 88 60 l26 -6 -25 37 c-14 21 -46 103 -71 184 -65
207 -68 212 -169 309 -50 47 -85 82 -78 78 6 -4 12 -5 12 -3 0 6 -247 177
-256 177 -4 0 -15 7 -25 16 -10 9 -23 14 -29 12 -6 -2 17 -20 52 -40 35 -21
77 -49 93 -62 l30 -25 -38 -1 c-24 0 -40 -5 -43 -15 -9 -22 -77 -19 -116 5
-18 11 -41 20 -50 20 -10 0 -22 9 -28 20 -14 25 -46 25 -87 0 -32 -19 -33 -19
-33 -1 0 15 10 21 43 26 23 4 68 19 101 33 65 29 61 34 -33 46 -30 4 -63 12
-74 17 -21 12 -20 24 8 124 10 33 20 94 24 135 l6 75 45 -75 c63 -106 135
-213 154 -229 12 -10 19 -11 30 -2 11 9 38 7 119 -8 119 -23 290 -41 390 -41
66 0 67 0 55 -21 -10 -17 -10 -23 -1 -26 9 -3 8 -14 -6 -42 -30 -57 -41 -63
-82 -43 -34 16 -35 19 -31 63 3 28 0 49 -7 53 -7 5 -11 -5 -11 -28 0 -19 -5
-38 -10 -41 -10 -6 -60 -80 -60 -88 0 -10 46 0 53 11 4 6 13 12 19 12 7 0 6
-5 -2 -15 -11 -13 -8 -16 19 -21 27 -6 60 -30 50 -37 -71 -53 -70 -60 5 -27
39 16 46 23 46 48 0 53 31 122 73 163 84 80 177 59 226 -51 26 -57 26 -105 1
-181 -12 -34 -19 -64 -15 -67 3 -3 5 2 5 11 0 11 8 17 21 17 12 0 39 16 61 35
21 20 52 38 68 42 l30 6 0 103 c0 82 -3 104 -14 104 -14 0 -19 -10 -71 -127
-15 -35 -31 -63 -35 -63 -4 0 -11 21 -15 47 -8 56 -37 117 -73 155 -28 30 -28
32 6 43 20 6 25 1 39 -34 18 -47 23 -49 48 -21 12 13 31 20 57 20 21 0 38 3
38 6 0 3 -13 23 -30 44 l-29 37 25 12 c14 6 31 11 39 11 8 0 15 8 15 18 0 14
-2 14 -9 3 -5 -8 -16 -11 -25 -8 -15 6 -15 9 -1 36 8 16 19 33 25 36 11 7 14
75 4 75 -9 0 -165 -80 -188 -96 -11 -8 -29 -14 -39 -14 -24 0 -186 82 -327
166 -143 84 -268 151 -340 180 l-55 23 30 11 c55 21 83 23 106 6 13 -9 31 -16
41 -16 11 0 15 -5 12 -15 -4 -8 -1 -15 5 -15 6 0 11 5 11 10 0 6 14 -5 30 -23
17 -19 30 -41 30 -48 0 -8 6 -5 14 7 11 15 26 19 68 18 66 -1 141 -37 209
-101 27 -25 49 -41 49 -35 0 25 -176 151 -245 175 -6 2 -4 20 4 45 11 32 21
44 46 52 48 16 81 -2 155 -82 92 -101 136 -162 176 -245 30 -65 54 -92 54 -63
0 23 -76 159 -128 230 -80 109 -79 107 -62 93 25 -23 48 -14 67 25 15 30 18
62 17 166 l0 129 110 -7 c61 -3 121 -9 134 -12 15 -5 22 -2 22 8 0 11 -16 17
-63 20 -63 5 -132 28 -408 132 -80 30 -163 58 -183 61 -24 5 -34 11 -28 17 14
14 147 45 224 53 63 6 68 8 63 28 -2 12 -9 51 -15 85 -6 35 -20 93 -31 129
-16 50 -18 68 -8 79 44 53 165 -52 192 -167 4 -14 2 -41 -3 -59 -5 -19 -8 -36
-5 -38 7 -7 42 77 50 120 8 41 28 53 84 49 22 -2 31 1 26 8 -3 6 10 2 30 -9
19 -11 44 -20 55 -20 19 0 20 8 20 310 l0 310 -285 0 c-186 0 -285 -4 -285
-10 0 -10 20 -50 30 -60 3 -3 6 -21 7 -40 2 -28 -3 -20 -24 38 l-27 72 -345
-2 -345 -3 -28 -49 c-36 -60 -110 -235 -127 -297 -7 -25 -11 -57 -9 -70 3 -21
8 -24 38 -21 45 5 176 71 275 140 l80 56 -48 -57 c-26 -31 -90 -127 -142 -214
-71 -120 -90 -160 -80 -166 8 -4 65 -14 127 -22 105 -14 114 -14 123 1 29 48
129 166 181 213 109 98 247 180 280 167 8 -3 24 -27 36 -53 17 -38 18 -48 7
-52 -8 -2 -68 -31 -134 -65 -102 -51 -132 -72 -200 -140 l-80 -80 34 -9 c19
-5 65 -7 103 -5 37 2 68 2 68 1 0 -3 -88 -84 -179 -164 -61 -54 -91 -73 -112
-74 -29 0 -41 -17 -17 -23 9 -2 8 0 -2 7 -13 9 -13 11 3 11 9 0 17 -4 17 -8 0
-11 -34 -42 -46 -42 -5 0 -2 5 6 10 13 8 12 11 -5 24 -22 16 -51 6 -92 -33
-12 -12 -28 -21 -35 -21 -10 0 -10 -2 0 -9 10 -6 5 -10 -17 -14 -34 -7 -40
-21 -15 -31 22 -9 32 3 14 14 -20 13 -3 12 21 0 13 -7 19 -7 19 0 0 5 11 9 24
8 14 -1 23 -5 20 -9 -8 -14 81 -61 153 -80 90 -23 100 -29 47 -30 -21 0 -59
-4 -84 -7 l-45 -7 135 -83 c147 -89 146 -92 -5 -66 -49 8 -99 15 -110 15 -21
1 -142 17 -186 25 -15 3 -35 13 -45 22 -11 9 -42 32 -70 51 l-51 34 42 44 c48
49 67 90 34 72 -10 -5 -19 -16 -19 -24 0 -8 -5 -15 -11 -15 -5 0 -8 4 -5 9 11
17 -29 22 -119 15 -66 -5 -83 -9 -66 -15 12 -5 34 -6 48 -3 18 5 24 3 19 -4
-9 -15 39 -86 89 -133 l40 -38 -65 16 c-36 9 -87 17 -115 17 -37 1 -56 7 -75
24 -20 17 -26 19 -28 8 -2 -8 -10 -12 -18 -9 -18 7 -18 -2 2 -21 8 -9 11 -16
6 -16 -12 0 -13 -48 -1 -56 5 -3 9 -1 9 4 0 5 14 12 31 16 22 4 30 10 25 21
-3 9 0 15 10 15 9 0 12 -5 8 -12 -4 -7 -3 -8 5 -4 6 4 9 12 6 17 -4 5 -2 9 3
9 5 0 24 -27 41 -60 39 -73 116 -159 195 -217 32 -24 56 -43 52 -43 -3 0 -53
29 -111 65 -58 36 -105 64 -105 63 0 -2 9 -35 20 -73 42 -145 93 -395 81 -395
-3 0 -50 67 -104 148 -149 224 -135 213 -136 98 -2 -115 -15 -155 -25 -77 -15
115 -41 171 -132 284 -48 60 -104 122 -126 140 -27 22 -35 33 -26 39 9 5 -2
22 -40 59 l-53 52 -20 -22 -20 -22 31 -39 c18 -22 52 -52 77 -66 l44 -27 -41
-23 c-23 -13 -44 -24 -47 -24 -2 0 -34 -20 -71 -44 -37 -23 -77 -48 -89 -55
-25 -13 -53 -15 -53 -3 0 4 27 50 60 101 34 51 59 95 57 98 -3 2 -21 -15 -41
-39 -20 -23 -52 -55 -71 -70 l-34 -29 9 28 c4 15 11 48 14 73 6 48 1 41 -29
-43 -11 -30 -21 -45 -28 -40 -7 4 -6 0 1 -10 8 -9 11 -21 7 -27 -4 -6 -30 10
-66 41 -67 58 -80 53 -18 -6 36 -35 69 -83 69 -100 0 -11 -113 -4 -147 10 -41
18 -54 19 -33 4 49 -35 -181 30 -254 72 -32 19 -8 -9 46 -51 l50 -40 -94 1
c-51 0 -115 4 -143 7 -43 6 -50 10 -53 31 -2 15 8 37 28 62 52 65 20 44 -81
-54 -96 -92 -300 -333 -340 -401 -11 -20 -23 -36 -25 -36 -17 0 62 443 88 494
7 12 6 22 0 28 -12 12 -192 -141 -251 -213 -18 -22 -35 -38 -37 -36 -3 2 5 25
16 51 11 26 20 49 20 52 0 2 -30 -16 -67 -40 -97 -62 -288 -162 -278 -145 12
20 247 368 262 388 11 14 3 16 -85 13 -102 -4 -109 0 -46 21 l39 14 -35 32
c-88 81 -328 209 -448 238 -40 9 -72 20 -72 23 0 11 313 79 438 96 29 4 55 11
59 17 3 5 -29 42 -71 83 -70 66 -74 72 -44 64 18 -5 58 -13 89 -18 l56 -9 -23
54 c-60 135 -154 295 -231 391 -19 23 -32 42 -30 42 2 0 40 -9 83 -20 153 -37
416 -90 453 -90 l38 0 6 98 c4 53 7 142 7 197 l0 100 34 -62 c18 -33 48 -80
66 -103 30 -38 35 -41 46 -25 7 9 15 40 19 68 3 29 8 69 11 90 l6 37 -756 0
-756 0 0 -891z m1060 742 c5 -11 10 -28 10 -38 -1 -14 -6 -12 -25 12 -14 17
-25 33 -25 38 0 15 30 6 40 -12z m-132 -107 c-4 -3 -12 5 -18 18 -12 22 -12
22 6 6 10 -10 15 -20 12 -24z m3802 -297 c0 -12 0 -11 -24 28 l-17 30 20 -24
c12 -13 21 -28 21 -34z m-1063 -22 c9 -25 -4 -29 -17 -6 -7 15 -7 21 0 21 6 0
13 -7 17 -15z m415 -17 c-7 -7 -12 -8 -12 -2 0 14 12 26 19 19 2 -3 -1 -11 -7
-17z m-97 -37 c3 -5 1 -12 -5 -16 -5 -3 -10 1 -10 9 0 18 6 21 15 7z m-152
-378 c-48 -30 -104 -66 -123 -80 -32 -23 -33 -24 -13 -3 30 32 206 149 216
143 4 -2 -32 -29 -80 -60z m-3597 2 c11 -16 11 -25 1 -45 -30 -60 -116 -14
-88 46 9 20 17 25 42 22 18 -2 38 -12 45 -23z m3064 -109 c0 -2 -7 -7 -16 -10
-8 -3 -12 -2 -9 4 6 10 25 14 25 6z m-210 -186 c0 -5 -2 -10 -4 -10 -3 0 -8 5
-11 10 -3 6 -1 10 4 10 6 0 11 -4 11 -10z m-2780 -52 c0 8 5 12 11 10 22 -7
17 -102 -11 -213 -30 -117 -99 -271 -144 -318 -14 -15 -26 -32 -26 -38 0 -5
-4 -9 -10 -9 -5 0 -10 -6 -10 -14 0 -7 -6 -19 -14 -25 -12 -10 -14 -8 -9 11 4
18 3 20 -6 8 -6 -8 -11 -10 -11 -5 0 6 10 21 23 35 13 14 22 31 19 39 -3 10 2
11 19 6 18 -5 20 -4 9 4 -12 9 -11 14 8 40 12 17 22 35 22 41 0 16 -26 40 -43
40 -25 0 -26 11 -1 60 13 26 24 51 24 55 0 16 112 231 126 241 8 7 12 19 8 30
-5 16 -4 16 5 4 8 -11 11 -12 11 -2z m4130 -53 c0 -8 -7 -15 -15 -15 -13 0
-14 3 -3 15 16 18 18 18 18 0z m-1680 -60 c28 -30 9 -34 -20 -5 -11 11 -20 22
-20 25 0 12 18 3 40 -20z m1060 -236 c52 -34 113 -76 135 -94 22 -17 58 -42
80 -54 43 -24 39 -23 -42 3 -29 10 -55 21 -58 26 -3 4 -26 2 -52 -6 -47 -14
-62 -9 -63 22 0 13 -71 109 -99 133 -18 16 -19 31 -2 31 4 0 49 -27 101 -61z
m-2673 36 c0 -8 -4 -12 -9 -9 -5 3 -6 10 -3 15 9 13 12 11 12 -6z m1707 -14
c4 -5 -22 -16 -56 -25 -60 -15 -61 -15 -16 -11 27 3 59 7 73 11 22 5 27 1 41
-31 17 -43 14 -57 -6 -21 -11 21 -15 23 -26 11 -16 -16 -19 -29 -4 -20 6 3 10
-2 10 -11 0 -16 -1 -16 -20 1 -16 15 -22 15 -35 5 -8 -7 -15 -23 -15 -36 0
-18 5 -24 23 -24 13 0 29 6 37 13 9 7 8 4 -1 -8 -18 -22 -15 -45 7 -45 8 0 14
-4 14 -10 0 -5 -7 -10 -15 -10 -20 0 -19 -20 2 -35 9 -7 13 -17 9 -23 -10 -17
-26 -15 -26 4 0 8 -5 12 -10 9 -14 -8 6 -45 24 -45 18 0 28 -27 21 -51 -7 -21
10 -26 18 -6 3 6 6 -5 6 -25 2 -104 -54 -153 -218 -192 -174 -42 -255 -50
-471 -50 -211 0 -317 11 -425 45 -52 16 -64 24 -82 56 -30 54 -46 158 -47 305
-1 119 0 129 22 150 l22 23 398 1 c370 1 408 3 557 26 198 31 183 30 189 19z
m-1744 -25 c0 -3 -4 -8 -10 -11 -5 -3 -10 -1 -10 4 0 6 5 11 10 11 6 0 10 -2
10 -4z m91 -113 c33 -101 34 -104 16 -78 -13 20 -32 77 -48 143 -13 59 3 25
32 -65z m1639 22 c0 -8 -7 -15 -15 -15 -16 0 -20 12 -8 23 11 12 23 8 23 -8z
m1339 -1 c10 -9 -35 -3 -49 6 -11 8 -7 9 15 4 17 -4 32 -8 34 -10z m-69 -84
c8 -5 11 -10 5 -10 -5 0 -17 5 -25 10 -8 5 -10 10 -5 10 6 0 17 -5 25 -10z
m-1193 -132 c-3 -8 -6 -5 -6 6 -1 11 2 17 5 13 3 -3 4 -12 1 -19z m602 -41
c20 -25 18 -59 -4 -63 -20 -3 -47 -29 -117 -114 l-38 -45 0 32 c0 17 6 33 13
36 8 3 7 7 -5 12 -14 6 -12 12 17 50 18 24 35 48 36 53 4 10 69 52 80 52 4 0
12 -6 18 -13z m-2237 -54 c-2 -27 -6 -49 -7 -51 -2 -2 -13 13 -25 33 -12 20
-21 37 -19 38 2 1 13 7 24 14 31 18 33 16 27 -34z m2234 -119 c-9 -8 -11 -9
-6 -2 6 7 11 21 11 33 1 18 2 18 6 1 3 -10 -2 -25 -11 -32z m-263 -26 c4 -30
5 -31 12 -10 4 12 11 22 16 22 12 0 12 -53 0 -65 -5 -6 -21 -55 -35 -110 -14
-55 -34 -125 -45 -155 l-20 -55 0 136 c-1 75 -4 163 -7 197 -7 65 -5 68 53 71
17 1 23 -6 26 -31z m253 -14 c7 3 15 0 18 -7 2 -7 5 2 6 18 2 30 2 30 10 5 13
-42 11 -109 -5 -140 -21 -41 -27 -38 -9 5 7 19 14 45 14 57 -1 15 -6 8 -17
-22 -18 -51 -60 -115 -94 -145 -31 -26 -94 -61 -85 -47 3 6 2 12 -3 14 -18 7
10 49 54 80 43 30 46 35 43 73 -3 37 -5 40 -36 43 -25 3 -32 8 -30 20 2 9 12
21 24 26 11 5 28 23 37 39 l17 29 21 -26 c12 -15 27 -25 35 -22z m-408 6 c25
0 32 -4 32 -20 0 -10 8 -23 18 -29 15 -9 17 -30 17 -210 0 -111 1 -201 2 -201
1 0 9 23 18 51 9 28 18 49 20 47 10 -10 -19 -123 -35 -141 -11 -11 -20 -28
-20 -36 0 -23 -73 -231 -81 -231 -4 0 -23 15 -43 34 -41 37 -134 91 -143 83
-3 -3 18 -17 47 -32 28 -14 72 -45 96 -67 l45 -41 -30 -31 c-35 -37 -54 -82
-47 -111 4 -15 -3 -30 -24 -50 -17 -16 -30 -25 -30 -22 0 4 -15 -7 -34 -26
-18 -18 -71 -52 -117 -76 -163 -81 -288 -196 -320 -293 -17 -52 -57 -78 -123
-78 -66 0 -116 26 -196 100 -36 34 -123 112 -195 175 -71 62 -154 138 -184
168 l-54 55 23 34 c13 18 48 60 79 92 52 55 53 57 14 27 -23 -17 -59 -55 -79
-84 -21 -29 -39 -54 -41 -56 -5 -7 -42 43 -70 96 -27 51 -27 52 -8 73 11 12
62 42 112 66 51 25 93 47 93 49 0 13 -140 -53 -191 -89 l-46 -34 -37 115 c-20
64 -34 118 -30 122 3 3 77 6 165 6 97 0 148 3 131 8 -35 11 -227 13 -272 4
l-35 -7 -21 58 c-12 31 -24 66 -29 77 -4 11 5 2 19 -20 15 -22 25 -31 22 -20
-12 56 -17 80 -36 204 -11 74 -20 152 -20 174 0 36 2 39 23 33 12 -3 31 -6 43
-6 11 0 51 -19 87 -43 l67 -43 -27 -22 -28 -22 35 16 c35 15 39 15 175 -31 91
-30 146 -54 158 -68 10 -12 16 -16 12 -9 -3 6 9 3 28 -8 19 -11 54 -22 78 -24
44 -4 89 -40 89 -72 0 -8 5 -14 10 -14 13 0 13 6 -4 39 -22 42 -74 83 -184
145 -55 30 -110 65 -123 76 l-24 20 55 -6 c30 -3 71 -10 91 -15 77 -19 309
-22 428 -4 62 9 121 19 130 23 26 9 -100 -97 -147 -125 -37 -22 -47 -24 -70
-14 l-27 11 24 -20 c13 -11 29 -20 37 -20 18 0 18 -5 -3 -38 -17 -26 -17 -26
0 -13 10 8 28 11 46 8 16 -3 45 -1 66 4 26 8 40 7 50 -1 12 -10 21 -4 49 26
81 92 87 98 78 79 -7 -14 -6 -24 3 -32 10 -9 20 -6 44 18 17 16 39 29 48 30
36 1 97 10 102 14 2 3 10 0 18 -6 21 -18 16 5 -9 37 -12 16 -15 23 -8 17 8 -7
28 -13 46 -13 17 0 46 -3 63 -6 30 -6 32 -9 26 -38 -12 -62 -37 -131 -54 -152
-38 -46 -77 -57 -183 -50 -54 3 -98 4 -98 2 0 -2 35 -9 78 -15 135 -20 219 12
255 96 20 49 77 201 77 207 0 3 -66 7 -147 8 l-148 3 73 23 c39 13 72 26 72
29 0 3 -21 3 -47 -1 -58 -8 -55 -5 32 34 51 22 80 29 105 25 19 -3 50 -5 68
-5z m179 -127 c-3 -10 -5 -4 -5 12 0 17 2 24 5 18 2 -7 2 -21 0 -30z m-1818
-110 c11 -49 22 -106 25 -128 5 -40 5 -40 -25 20 -27 53 -30 56 -25 25 10 -59
-10 -11 -28 67 -20 91 -21 114 -1 107 10 -4 15 0 15 12 1 38 20 -13 39 -103z
m1802 2 c-6 -43 -9 -50 -10 -25 -1 41 12 122 16 100 2 -8 -1 -42 -6 -75z
m-2257 36 c18 -20 18 -20 -28 -42 -25 -13 -48 -20 -52 -17 -3 3 2 20 10 37 9
16 16 37 16 46 0 19 25 8 54 -24z m2491 -2 c-9 -17 -19 -29 -22 -26 -5 5 25
57 33 57 3 0 -3 -14 -11 -31z m-2367 -17 c2 -12 8 -20 13 -17 17 11 9 -3 -26
-45 -19 -23 -35 -48 -35 -56 0 -8 -7 -14 -15 -14 -17 0 -65 -95 -66 -131 0
-13 -6 -42 -13 -64 l-12 -40 -13 50 c-12 44 -14 47 -22 28 -19 -50 -21 -119
-5 -179 20 -77 20 -80 0 -63 -15 12 -16 11 -10 -8 4 -12 3 -24 -3 -27 -10 -6
-74 87 -128 185 -30 54 -30 55 -9 56 11 0 36 1 55 2 l35 1 -25 28 c-48 52 -62
82 -50 108 6 15 19 24 33 24 23 1 23 1 3 16 -19 15 -19 15 10 8 17 -3 32 -7
35 -6 23 0 30 4 30 18 0 12 5 14 18 9 50 -21 112 4 112 45 0 24 59 102 73 97
7 -2 13 -13 15 -25z m266 -67 l7 -40 -25 34 c-28 38 -29 43 -19 81 l7 25 11
-30 c7 -17 16 -48 19 -70z m2073 38 c-75 -135 -152 -253 -176 -271 -39 -28
-91 -40 -90 -21 0 8 6 59 13 114 9 63 14 84 15 58 1 -47 18 -59 23 -16 2 21
16 35 61 61 32 19 60 32 63 29 8 -8 -31 -76 -73 -127 l-37 -45 42 39 c22 22
53 59 69 83 15 23 33 43 40 43 7 0 12 3 11 8 -2 4 6 17 17 30 19 22 30 29 22
15z m438 -103 c3 6 3 16 -1 23 -5 9 -4 9 6 0 10 -10 11 -15 1 -27 -9 -11 -9
-15 1 -19 7 -2 10 -7 7 -11 -4 -4 -21 12 -39 36 -20 27 -23 33 -7 16 15 -16
29 -23 32 -18z m-2835 -30 c0 -5 -2 -10 -4 -10 -3 0 -8 5 -11 10 -3 6 -1 10 4
10 6 0 11 -4 11 -10z m221 -7 c13 -16 12 -17 -3 -4 -17 13 -22 21 -14 21 2 0
10 -8 17 -17z m2345 -20 c-10 -10 -19 5 -10 18 6 11 8 11 12 0 2 -7 1 -15 -2
-18z m-3033 -100 c-11 -29 -93 -39 -93 -12 0 5 -7 9 -15 9 -21 0 -19 28 3 32
9 2 38 0 64 -5 35 -7 45 -13 41 -24z m2985 -29 c-45 -17 -56 -17 -33 -1 10 8
15 19 11 25 -11 17 18 20 37 3 18 -15 17 -16 -15 -27z m-2438 26 c-20 -13 -40
-13 -40 0 0 6 12 10 28 10 21 0 24 -2 12 -10z m2880 -25 c7 -9 10 -19 6 -22
-8 -9 -38 9 -44 25 -5 17 23 15 38 -3z m-2720 -35 c27 -53 26 -54 -15 -13 -19
19 -32 39 -29 44 11 18 24 8 44 -31z m2393 18 c32 -24 38 -109 26 -333 -9
-150 -9 -227 -2 -270 12 -68 7 -84 -39 -116 -29 -21 -31 -21 -23 -3 17 41 22
119 10 169 -14 57 -17 53 -19 -25 -1 -68 -31 -130 -70 -149 -24 -11 -30 -11
-43 2 -13 13 -12 20 6 63 25 61 44 134 37 142 -3 3 -6 0 -6 -6 0 -26 -132
-147 -144 -131 -11 16 -34 94 -30 100 3 5 3 9 0 9 -2 0 -15 -20 -27 -45 -19
-38 -36 -53 -103 -91 -45 -26 -116 -69 -159 -95 -43 -27 -82 -49 -86 -49 -5 0
-23 -16 -42 -35 -19 -19 -40 -35 -48 -35 -7 0 -11 -6 -8 -14 4 -10 0 -12 -14
-9 -14 4 -20 1 -19 -8 4 -26 0 -40 -9 -35 -11 7 -36 -22 -28 -31 4 -3 14 0 22
7 11 9 19 10 26 3 8 -8 -3 -16 -33 -27 -56 -20 -64 -21 -123 -11 -66 10 -119
30 -157 56 -25 18 -32 19 -39 8 -7 -12 -9 -12 -10 1 0 8 -5 2 -11 -13 -12 -34
-1 -50 56 -79 31 -16 66 -22 148 -26 59 -3 108 -8 108 -12 0 -4 -7 -13 -15
-20 -12 -10 -13 -16 -4 -26 6 -8 17 -14 24 -14 7 0 33 -11 57 -25 l44 -25 34
28 c19 15 41 35 49 45 20 22 26 22 51 -5 31 -33 26 -79 -17 -145 -62 -98 -122
-169 -184 -218 -36 -28 -59 -54 -59 -66 0 -10 -4 -19 -9 -19 -8 0 -89 117
-100 145 -15 38 -90 132 -140 175 -70 61 -96 113 -110 223 -11 91 5 176 44
243 57 97 203 195 411 278 87 34 228 71 219 56 -2 -3 19 -7 48 -7 l52 -1 -35
13 c-35 12 -39 27 -18 52 11 14 42 18 35 6 -3 -5 7 -8 22 -9 16 -1 43 -8 61
-17 48 -24 50 -21 7 16 -39 33 -51 71 -48 157 1 23 -2 30 -8 22 -7 -11 -9 -11
-14 2 -13 33 -28 15 -25 -31 1 -29 -3 -48 -10 -51 -7 -2 -10 -8 -6 -13 3 -5 2
-8 -3 -7 -9 3 -83 -41 -83 -49 0 -3 8 -2 18 2 14 5 15 4 4 -7 -18 -18 -99 -15
-119 5 -13 13 -14 20 -4 45 11 27 61 84 61 70 0 -3 -7 -22 -16 -43 -8 -20 -13
-39 -10 -42 8 -8 46 85 58 142 13 65 25 78 103 100 32 9 80 28 105 41 24 13
62 24 82 24 48 0 64 -24 73 -110 10 -109 26 -171 62 -255 39 -88 41 -91 49
-83 3 3 -8 35 -25 70 -42 90 -57 156 -43 179 17 26 15 37 -2 14 -12 -16 -14
-8 -20 66 -7 77 -10 86 -41 114 l-33 31 65 -2 c36 -1 81 4 101 11 47 17 94 18
115 3z m436 3 c15 -10 7 -31 -13 -31 -8 0 -19 6 -25 13 -19 23 9 36 38 18z
m-169 -41 c27 -27 27 -119 1 -186 -27 -68 -85 -270 -111 -387 -23 -104 -32
-116 -98 -123 -21 -3 -23 0 -17 24 7 26 15 121 16 190 1 17 1 44 1 60 1 15 0
68 -1 117 -2 122 4 150 46 196 44 49 36 51 -17 3 l-40 -36 0 60 c0 33 -3 67
-6 76 -5 13 7 16 78 19 45 1 93 4 106 5 12 1 31 -7 42 -18z m-3184 -58 c16
-11 44 -55 44 -69 0 -7 -5 -13 -11 -13 -6 0 -9 6 -6 14 6 14 -27 56 -43 56 -6
0 -10 5 -10 10 0 12 11 13 26 2z m-281 -12 c3 -5 1 -10 -4 -10 -6 0 -11 5 -11
10 0 6 2 10 4 10 3 0 8 -4 11 -10z m681 -45 c18 -13 18 -14 -4 -8 -12 3 -25 9
-28 14 -8 14 10 11 32 -6z m84 -54 c0 -6 -4 -13 -10 -16 -5 -3 -10 1 -10 9 0
9 5 16 10 16 6 0 10 -4 10 -9z m-318 -73 c-2 -10 1 -18 7 -18 6 0 11 -8 11
-17 0 -13 -6 -9 -20 12 -24 36 -24 42 -6 42 8 0 11 -8 8 -19z m3034 -83 c-18
-49 -21 -17 -4 40 8 28 13 34 15 20 2 -11 -3 -38 -11 -60z m-2907 -109 c9 -11
11 -16 4 -13 -19 12 -103 137 -103 154 0 9 19 -14 41 -53 23 -38 49 -78 58
-88z m96 54 c3 -5 2 -10 -4 -10 -5 0 -13 5 -16 10 -3 6 -2 10 4 10 5 0 13 -4
16 -10z m141 -26 c-4 -10 2 -14 22 -14 15 0 51 -9 80 -20 29 -11 57 -18 62
-15 13 8 66 -21 73 -39 6 -16 -1 -26 -17 -26 -6 0 -4 5 4 10 13 8 12 10 -2 10
-24 0 -22 -19 4 -49 17 -20 14 -18 -12 5 -55 49 -140 91 -200 99 -57 7 -120
29 -120 41 0 6 28 1 73 -12 11 -4 17 0 17 10 0 9 -4 16 -10 16 -5 0 -10 5 -10
10 0 7 7 7 21 0 12 -7 18 -18 15 -26z m-106 -158 c15 -10 19 -16 9 -16 -8 0
-41 28 -74 62 -52 55 -54 57 -10 17 28 -25 61 -53 75 -63z m3277 24 c-6 -11
-15 -20 -18 -20 -4 0 -10 -11 -13 -25 -4 -15 -11 -23 -17 -19 -8 4 -8 9 1 14
6 4 11 10 11 13 -1 14 34 65 41 61 4 -3 2 -14 -5 -24z m-52 -80 c3 -5 1 -10
-4 -10 -6 0 -11 5 -11 10 0 6 2 10 4 10 3 0 8 -4 11 -10z m-1003 -45 c1 -6
-40 -31 -91 -56 -86 -44 -106 -69 -43 -55 26 6 26 6 7 -10 -28 -22 -113 -60
-230 -101 -55 -20 -106 -40 -112 -46 -9 -7 -13 -5 -13 6 0 9 15 28 33 42 37
30 428 235 440 232 5 -1 9 -7 9 -12z m3 -125 c-3 -5 -12 -10 -18 -10 -7 0 -6
4 3 10 19 12 23 12 15 0z m-2815 -80 c0 -5 -4 -10 -10 -10 -5 0 -10 5 -10 10
0 6 5 10 10 10 6 0 10 -4 10 -10z m94 -49 c-5 -7 -24 11 -35 32 -11 20 -9 20
13 -3 13 -14 23 -27 22 -29z m36 -36 c13 -14 21 -25 18 -25 -2 0 -15 11 -28
25 -13 14 -21 25 -18 25 2 0 15 -11 28 -25z m3511 -12 c-12 -20 -14 -14 -5 12
4 9 9 14 11 11 3 -2 0 -13 -6 -23z m-3540 -50 c13 -16 12 -17 -3 -4 -10 7 -18
15 -18 17 0 8 8 3 21 -13z m2549 -163 c0 -5 -5 -10 -11 -10 -5 0 -7 5 -4 10 3
6 8 10 11 10 2 0 4 -4 4 -10z m35 -8 c-3 -3 -11 0 -18 7 -9 10 -8 11 6 5 10
-3 15 -9 12 -12z m-839 -38 c-10 -26 -23 -14 -18 17 4 26 6 29 14 15 5 -10 7
-24 4 -32z m713 -40 c28 -25 49 -50 46 -54 -3 -5 2 -13 11 -18 15 -8 11 -18
-26 -82 -44 -75 -139 -215 -192 -283 -24 -30 -33 -35 -44 -26 -17 14 -7 32 14
24 18 -7 10 4 -80 103 -32 34 -58 71 -58 82 0 10 14 29 32 41 17 13 28 18 24
11 -29 -47 102 74 144 133 8 12 -2 3 -23 -20 l-39 -40 30 45 c16 25 41 64 56
88 14 23 32 42 40 42 8 0 37 -21 65 -46z m163 -40 c8 -17 8 -28 2 -32 -18 -12
-25 -45 -12 -54 10 -8 10 -9 -1 -6 -14 4 -71 -47 -71 -63 0 -16 -28 -10 -34 7
-6 17 81 174 96 174 5 0 14 -12 20 -26z m-2276 -66 c8 -16 13 -28 10 -28 -5 0
-46 69 -46 78 0 8 15 -13 36 -50z m751 -20 c-2 -13 -4 -3 -4 22 0 25 2 35 4
23 2 -13 2 -33 0 -45z m-486 -25 c13 -16 12 -17 -3 -4 -17 13 -22 21 -14 21 2
0 10 -8 17 -17z m111 -116 c47 -69 106 -189 114 -234 7 -38 14 -43 154 -98
103 -41 144 -65 160 -96 9 -17 8 -18 -12 -10 -69 27 -246 120 -235 124 6 3 2
6 -10 6 -13 1 -23 6 -23 11 0 6 -5 10 -10 10 -20 0 -37 24 -33 45 4 16 3 17
-6 5 -11 -16 -14 -17 -65 -19 -19 0 -41 -7 -49 -15 -8 -8 -19 -11 -26 -6 -9 5
-6 9 11 13 25 7 30 26 32 140 1 26 5 46 11 44 5 -2 8 -22 6 -45 -1 -27 2 -42
9 -42 8 0 10 11 6 33 l-6 32 11 -29 c10 -24 9 -31 -5 -41 -9 -7 -16 -23 -16
-35 0 -22 1 -22 18 -6 18 15 19 15 31 -11 10 -22 14 -24 22 -12 12 19 11 42
-1 34 -9 -6 -11 -1 -14 38 -1 6 -3 14 -6 17 -9 9 -40 72 -40 81 0 15 -71 112
-97 132 -13 10 -23 23 -23 29 0 18 49 -33 92 -95z m1786 31 c11 -18 24 -46 27
-63 l7 -30 -31 32 c-17 18 -31 37 -31 43 0 6 -4 8 -10 5 -5 -3 -10 -4 -10 0 0
5 23 45 27 45 1 0 10 -15 21 -32z m-1877 -90 c15 -28 5 -21 -21 15 -15 20 -17
27 -6 18 9 -8 22 -23 27 -33z m1843 11 c19 -32 11 -32 -26 0 -21 18 -23 31 -5
31 7 0 21 -14 31 -31z m-20 -78 c-2 -3 -18 8 -34 24 -23 22 -27 31 -18 42 9
11 15 6 34 -24 12 -21 21 -40 18 -42z m739 48 c12 -7 23 -13 25 -14 2 -2 -3
-14 -11 -27 -8 -12 -23 -52 -33 -88 -19 -69 -42 -95 -84 -95 -18 0 -26 -6 -28
-22 -4 -28 -6 -28 -48 -2 -42 25 -43 40 -4 62 25 15 29 23 24 45 -9 39 -38 77
-63 80 -16 3 -21 10 -21 31 0 15 3 31 7 34 11 12 213 8 236 -4z m-297 -94 c30
-147 32 -157 24 -184 l-7 -26 -7 23 c-12 37 -40 24 -44 -21 -2 -20 -7 -37 -12
-37 -4 0 -11 -11 -14 -25 -4 -15 -11 -23 -17 -19 -7 4 -10 -3 -8 -17 3 -31
-16 -75 -35 -82 -19 -7 -25 1 -28 41 -2 28 -5 31 -28 26 -17 -4 -21 -3 -12 4
7 5 12 13 10 18 -3 10 27 58 54 88 18 20 18 20 20 0 0 -10 0 -30 -1 -44 -2
-19 0 -22 9 -13 9 8 9 24 2 59 -6 27 -8 53 -5 58 3 5 1 6 -5 2 -17 -10 -15 -1
11 52 13 26 34 80 47 121 13 41 25 71 26 65 2 -5 11 -45 20 -89z m-2236 35 c0
-22 -3 -40 -8 -40 -4 0 -6 18 -4 40 2 22 6 40 8 40 2 0 4 -18 4 -40z m1728 15
c-3 -3 -9 2 -12 12 -6 14 -5 15 5 6 7 -7 10 -15 7 -18z m284 -47 c-9 -9 -12
-8 -12 6 0 9 -4 14 -10 11 -6 -3 -7 1 -4 10 6 15 8 15 22 1 13 -12 14 -18 4
-28z m93 -18 l20 -25 -22 19 c-13 11 -23 24 -23 29 0 6 1 8 3 6 1 -2 11 -15
22 -29z m-1035 0 c0 -5 -8 -10 -17 -10 -15 0 -16 2 -3 10 19 12 20 12 20 0z
m-1100 -20 c-6 -11 -16 -20 -22 -20 -6 0 -3 9 7 20 10 11 20 20 22 20 2 0 -1
-9 -7 -20z m1095 -20 c-3 -5 -11 -10 -16 -10 -6 0 -7 5 -4 10 3 6 11 10 16 10
6 0 7 -4 4 -10z m-5 -30 c0 -5 -5 -10 -11 -10 -5 0 -7 5 -4 10 3 6 8 10 11 10
2 0 4 -4 4 -10z m986 -50 c1 -20 -3 -30 -12 -30 -10 0 -13 8 -9 28 3 15 2 21
-1 15 -3 -7 -10 -13 -15 -13 -10 0 -12 43 -2 54 12 12 38 -23 39 -54z m-1955
13 c7 -10 10 -15 5 -11 -4 4 -17 -2 -28 -12 -16 -15 -25 -17 -44 -8 -26 12
-30 23 -14 33 6 4 9 1 8 -7 -2 -7 7 -14 20 -16 17 -3 22 1 22 17 0 26 13 27
31 4z m84 -3 c3 -5 1 -10 -4 -10 -6 0 -11 5 -11 10 0 6 2 10 4 10 3 0 8 -4 11
-10z m879 -5 c-4 -8 -8 -15 -10 -15 -2 0 -4 7 -4 15 0 8 4 15 10 15 5 0 7 -7
4 -15z m806 -16 c0 -6 -4 -7 -10 -4 -5 3 -10 11 -10 16 0 6 5 7 10 4 6 -3 10
-11 10 -16z m-1646 2 c3 -5 -5 -11 -19 -13 -20 -4 -23 -3 -14 8 13 16 25 18
33 5z m-64 -31 c-8 -5 -26 -9 -40 -9 -23 0 -23 1 -5 9 11 5 29 9 40 9 17 1 17
-1 5 -9z m370 -24 c0 -3 -4 -8 -10 -11 -5 -3 -10 -1 -10 4 0 6 5 11 10 11 6 0
10 -2 10 -4z m38 -41 c13 -4 22 -9 19 -11 -8 -9 -57 16 -57 28 0 9 3 10 8 2 4
-6 17 -15 30 -19z m1237 -5 c3 -6 -1 -7 -9 -4 -18 7 -21 14 -7 14 6 0 13 -4
16 -10z m482 -42 c-3 -8 -6 -5 -6 6 -1 11 2 17 5 13 3 -3 4 -12 1 -19z m-432
-38 c3 -6 -1 -7 -9 -4 -18 7 -21 14 -7 14 6 0 13 -4 16 -10z m34 -55 c0 -5 -6
-1 -14 9 -8 10 -11 24 -8 29 6 10 21 -16 22 -38z m-114 15 c10 -11 14 -20 9
-20 -5 0 -15 9 -22 20 -7 11 -11 20 -9 20 2 0 12 -9 22 -20z m195 -71 c0 -5 5
-7 10 -4 6 3 10 2 10 -4 0 -17 -22 -24 -31 -10 -12 19 -11 29 1 29 6 0 10 -5
10 -11z m71 -66 c13 -16 12 -17 -3 -4 -17 13 -22 21 -14 21 2 0 10 -8 17 -17z
m26 -5 c-3 -8 -6 -5 -6 6 -1 11 2 17 5 13 3 -3 4 -12 1 -19z m-323 -116 c3 -5
2 -19 -1 -31 -4 -17 -8 -19 -14 -9 -12 18 -11 48 0 48 6 0 12 -4 15 -8z m-667
-28 c-3 -3 -12 -4 -19 -1 -8 3 -5 6 6 6 11 1 17 -2 13 -5z m718 -14 c16 -17
16 -20 2 -20 -8 0 -18 6 -20 13 -3 7 -6 5 -6 -5 -1 -18 -21 -26 -21 -9 0 16
12 41 20 41 4 0 15 -9 25 -20z m352 -6 c-3 -3 -12 -4 -19 -1 -8 3 -5 6 6 6 11
1 17 -2 13 -5z m-1082 -14 c-11 -5 -27 -9 -35 -9 -9 0 -8 4 5 9 11 5 27 9 35
9 9 0 8 -4 -5 -9z m10 -30 c-11 -5 -27 -9 -35 -9 -9 0 -8 4 5 9 11 5 27 9 35
9 9 0 8 -4 -5 -9z m25 -20 c0 -5 -1 -10 -3 -10 -1 0 -17 -4 -35 -9 -39 -12
-43 1 -4 16 36 14 42 15 42 3z m8 -35 c-10 -10 -68 -24 -68 -16 0 5 15 13 33
18 31 9 46 8 35 -2z m1157 5 c3 -5 1 -10 -4 -10 -6 0 -11 5 -11 10 0 6 2 10 4
10 3 0 8 -4 11 -10z m48 -33 c10 -4 15 -11 12 -17 -4 -6 -15 -3 -30 7 -12 10
-21 22 -18 27 3 4 8 4 12 -1 3 -5 14 -12 24 -16z m-1227 -13 c-22 -8 -41 -12
-44 -9 -7 6 39 24 63 24 11 0 3 -7 -19 -15z m2151 0 c-3 -3 -12 -4 -19 -1 -8
3 -5 6 6 6 11 1 17 -2 13 -5z m98 -25 c14 -7 7 -7 -20 -3 -22 3 -47 10 -55 15
-18 12 44 1 75 -12z m-2216 7 c-2 -1 -20 -8 -39 -14 -32 -11 -33 -10 -16 3 16
12 69 23 55 11z m-23 -42 c-22 -8 -41 -12 -44 -9 -7 6 39 24 63 24 11 0 3 -7
-19 -15z m1334 -19 c0 -2 -8 -3 -18 -2 -10 0 -19 7 -19 13 0 9 5 10 19 3 10
-5 18 -12 18 -14z m-1335 -19 c-16 -7 -32 -11 -35 -9 -8 7 24 23 45 22 15 0
13 -3 -10 -13z m1349 -1 c-4 -8 -11 -12 -16 -9 -6 4 -5 10 3 15 19 12 19 11
13 -6z m-2769 -36 c22 -41 11 -36 -14 7 -12 19 -16 32 -11 29 6 -3 17 -19 25
-36z m2830 2 c3 -5 2 -12 -3 -15 -5 -3 -9 1 -9 9 0 17 3 19 12 6z m102 -88 c0
-8 -6 -9 -19 -2 -10 5 -18 11 -18 12 0 2 8 3 18 3 10 0 19 -6 19 -13z m662
-34 c9 -25 7 -29 -8 -29 -10 0 -26 9 -36 20 -14 16 -15 23 -6 34 17 20 38 10
50 -25z m-586 -11 c-5 -9 -8 -9 -11 0 -2 7 -8 10 -13 6 -5 -3 -9 0 -9 5 0 6
-3 10 -7 10 -17 -3 -24 2 -18 11 4 6 17 4 36 -5 18 -10 27 -20 22 -27z m337
32 c0 -5 -2 -10 -4 -10 -3 0 -8 5 -11 10 -3 6 -1 10 4 10 6 0 11 -4 11 -10z
m-94 -126 c6 -7 13 -12 15 -10 2 3 20 -9 39 -25 l35 -30 -55 32 c-30 18 -72
42 -93 54 -20 12 -34 24 -31 28 7 7 75 -29 90 -49z m-2811 -99 c24 -30 35 -35
69 -35 47 0 73 -15 213 -115 114 -81 153 -120 358 -355 226 -259 375 -399 711
-671 67 -54 71 -60 134 -195 35 -76 71 -144 80 -151 21 -15 36 -49 173 -395
10 -25 8 -31 -36 -73 -29 -27 -47 -53 -47 -67 0 -46 -12 -67 -41 -73 -40 -9
-77 12 -113 65 -30 43 -86 175 -100 231 -7 33 21 67 84 103 25 14 38 26 30 26
-25 0 -114 -46 -134 -69 -11 -11 -23 -21 -27 -21 -8 0 -51 77 -69 125 -11 30
22 74 89 117 25 15 40 28 35 28 -6 0 -32 -14 -58 -31 -27 -16 -49 -29 -50 -27
-11 19 -26 59 -32 83 l-7 30 -9 -41 c-6 -30 -13 -41 -26 -40 -14 1 -17 -7 -16
-39 1 -48 70 -266 89 -281 17 -13 40 -68 25 -59 -6 3 -10 14 -11 23 0 12 -3
11 -9 -5 -6 -15 -18 -23 -33 -23 -30 0 -118 -30 -177 -60 l-43 -22 -19 23
c-11 14 -16 33 -13 46 10 43 -104 242 -154 267 l-30 16 -6 -44 c-8 -53 -6 -61
100 -331 77 -195 100 -265 87 -265 -2 0 -15 11 -28 25 -28 30 -39 32 -24 6 15
-28 12 -77 -5 -112 l-16 -30 -27 20 c-15 11 -40 31 -56 45 -16 14 -37 26 -48
26 -17 0 -17 -2 1 -50 17 -44 17 -49 2 -40 -35 21 -48 37 -70 90 -13 30 -50
109 -81 175 -32 66 -72 156 -89 200 -17 45 -43 97 -57 115 -14 19 -33 51 -42
70 l-15 35 -7 -31 c-4 -17 -10 -36 -14 -43 -4 -6 -5 -30 -1 -51 5 -29 12 -40
25 -40 10 0 24 -10 32 -22 28 -44 140 -356 133 -369 -5 -7 -4 -10 3 -5 11 7
38 -71 29 -81 -3 -2 -8 9 -12 26 -8 38 -27 32 -44 -14 -24 -67 -88 -36 -154
76 -20 34 -37 66 -37 70 0 5 -4 9 -9 9 -9 0 -91 159 -91 176 0 5 -12 27 -27
49 -15 22 -28 46 -29 53 -3 17 48 -20 80 -59 71 -84 63 39 -10 152 -47 74 -69
85 -84 43 -9 -23 -12 -25 -28 -13 -26 21 -29 28 -36 83 -11 81 -79 346 -89
346 -10 0 -7 -23 17 -149 17 -90 8 -82 -34 29 -36 96 -89 200 -101 200 -4 0 3
-29 16 -65 13 -36 22 -65 20 -65 -2 0 -25 39 -51 86 -52 95 -79 173 -130 374
-19 74 -48 162 -64 195 -21 40 -32 82 -37 128 -3 37 -10 70 -14 73 -14 8 -10
44 6 60 8 9 15 27 15 42 0 67 12 102 36 108 23 6 34 24 15 24 -12 0 -31 56
-31 90 0 49 30 89 101 136 72 48 87 76 47 88 l-23 7 23 11 c12 6 25 22 28 34
8 30 29 20 69 -31z m35 -1 c0 -8 -4 -12 -10 -9 -5 3 -10 10 -10 16 0 5 5 9 10
9 6 0 10 -7 10 -16z m-167 -11 c-7 -2 -19 -2 -25 0 -7 3 -2 5 12 5 14 0 19 -2
13 -5z m-168 -250 c-8 -21 -16 -51 -20 -66 -4 -21 -13 -29 -35 -33 -16 -4 -29
-9 -28 -13 4 -20 -16 -41 -34 -35 -11 3 -18 2 -15 -3 3 -5 2 -15 -4 -23 -6
-11 -9 -6 -9 18 0 53 34 106 97 151 32 23 59 41 60 41 1 0 -5 -17 -12 -37z
m1692 -259 c-3 -3 -12 -4 -19 -1 -8 3 -5 6 6 6 11 1 17 -2 13 -5z m-187 -24
c-8 -5 -19 -10 -25 -10 -5 0 -3 5 5 10 8 5 20 10 25 10 6 0 3 -5 -5 -10z m314
-29 c-2 -3 -12 3 -22 13 -16 17 -16 18 5 5 12 -7 20 -15 17 -18z m1720 -789
c3 -5 0 -9 -7 -9 -7 0 -21 -4 -32 -7 -13 -5 -12 -2 5 8 30 18 28 18 34 8z
m-345 -241 c-95 -87 -193 -206 -183 -222 4 -7 3 -9 -3 -6 -6 4 -17 -1 -24 -10
-11 -13 -11 -15 -1 -9 11 7 11 4 1 -12 -7 -12 -16 -19 -19 -17 -9 5 -60 -76
-60 -95 0 -9 -11 -26 -25 -38 -18 -16 -25 -32 -25 -59 0 -20 -3 -33 -7 -30 -3
4 -12 2 -20 -4 -7 -6 -13 -8 -13 -4 0 4 -19 -7 -42 -24 -28 -21 -45 -28 -53
-21 -7 5 -15 7 -18 3 -13 -12 -7 -23 13 -23 11 0 20 -7 20 -15 0 -11 -11 -15
-37 -16 -64 -1 -97 -9 -110 -26 -26 -34 -12 -1 16 37 15 22 32 36 36 32 5 -4
6 0 2 10 -9 24 4 30 25 11 19 -17 22 -15 12 11 -11 28 -31 17 -75 -41 -23 -32
-46 -60 -51 -61 -4 -2 -6 -8 -2 -13 3 -5 0 -9 -5 -9 -6 0 -11 4 -11 9 0 12 86
126 133 179 19 20 45 49 58 64 63 71 519 468 537 468 4 0 -27 -31 -69 -69z
m-1047 -154 c70 -32 107 -65 91 -80 -5 -6 -43 10 -53 22 -3 3 -22 15 -42 25
-21 11 -38 26 -39 35 0 11 -2 12 -6 3 -3 -9 -10 -7 -24 9 -20 23 -25 34 -11
26 4 -3 42 -21 84 -40z m-512 -201 c20 -4 83 -161 76 -190 -3 -13 -21 -31 -41
-41 -34 -19 -35 -19 -55 3 -11 12 -24 22 -28 22 -50 -1 -77 -41 -60 -90 5 -17
8 -34 5 -37 -11 -11 -58 54 -103 144 -45 89 -46 93 -30 117 29 45 142 90 196
79 14 -3 32 -6 40 -7z m780 -289 c0 -14 -20 -37 -32 -37 -12 0 -10 24 4 38 16
16 28 15 28 -1z m-3050 -127 c0 -5 -5 -10 -11 -10 -5 0 -7 5 -4 10 3 6 8 10
11 10 2 0 4 -4 4 -10z m1614 -55 c5 -22 4 -26 -4 -15 -5 8 -10 24 -10 34 0 26
6 18 14 -19z m11 -55 c3 -5 1 -10 -4 -10 -6 0 -11 5 -11 10 0 6 2 10 4 10 3 0
8 -4 11 -10z"/>
<path d="M2635 6700 l-20 -9 20 1 c11 0 34 4 50 8 l30 8 -30 0 c-16 0 -39 -3
-50 -8z"/>
<path d="M2165 6670 l-130 -6 150 -1 c83 -1 175 2 205 7 55 7 55 7 -20 7 -41
-1 -133 -4 -205 -7z"/>
<path d="M2487 6572 c-46 -46 -47 -46 -79 -33 -115 48 -224 8 -288 -106 -18
-32 -47 -79 -66 -105 -24 -34 -30 -49 -21 -55 6 -4 52 -13 102 -20 49 -7 109
-15 133 -19 148 -23 238 146 112 211 -76 39 -164 -9 -148 -82 2 -10 10 -17 17
-15 7 1 10 -2 6 -7 -15 -25 74 -42 94 -18 16 20 5 25 -39 17 -22 -4 -37 -4
-35 0 3 4 -2 13 -10 20 -17 14 -20 56 -5 65 6 3 7 -1 4 -9 -8 -20 3 -20 22 -1
9 8 29 15 45 15 69 0 94 -87 40 -141 -19 -18 -40 -29 -58 -29 -15 0 -38 -3
-51 -6 -17 -5 -31 3 -62 34 -37 37 -40 44 -40 95 0 46 5 61 27 88 50 60 147
78 210 39 l33 -20 62 59 c34 31 57 60 52 64 -6 3 -31 -15 -57 -41z m-357 -224
c0 -7 7 -25 14 -41 l15 -27 -42 6 c-23 4 -44 8 -46 10 -5 4 42 63 52 63 4 1 7
-5 7 -11z"/>
<path d="M1730 6597 c0 -21 27 -34 41 -20 7 7 5 12 -6 17 -11 4 -14 2 -10 -7
4 -6 -1 -3 -9 7 -14 18 -16 18 -16 3z"/>
<path d="M1725 6438 c8 -21 -5 -24 -23 -6 -9 9 -12 9 -12 0 0 -18 29 -27 43
-13 8 8 8 14 -2 24 -10 10 -11 9 -6 -5z"/>
<path d="M2885 6330 c-6 -18 -9 -19 -23 -8 -15 11 -15 11 -4 -3 10 -13 9 -19
-3 -29 -8 -7 -21 -10 -29 -7 -10 4 -13 1 -9 -9 10 -28 41 -15 62 27 12 23 20
43 17 46 -2 2 -7 -5 -11 -17z"/>
<path d="M1740 6264 c0 -17 27 -37 40 -29 5 3 10 11 10 18 0 8 -3 8 -12 -1 -9
-9 -14 -7 -24 6 -8 9 -14 12 -14 6z"/>
<path d="M1700 5943 c-14 -2 -47 -11 -73 -19 -26 -9 -54 -13 -62 -10 -25 9
-17 0 25 -29 39 -27 41 -28 78 -12 20 8 49 18 65 21 44 10 157 -13 227 -46
100 -47 139 -62 118 -45 -10 8 -15 16 -12 19 8 9 -109 77 -168 97 -57 20 -157
32 -198 24z m110 -29 c0 -2 -7 -4 -15 -4 -8 0 -15 4 -15 10 0 5 7 7 15 4 8 -4
15 -8 15 -10z"/>
<path d="M2781 5931 c-16 -10 -6 -31 14 -31 11 0 25 20 25 36 0 7 -24 4 -39
-5z"/>
<path d="M2890 5880 c-24 -59 -94 -78 -144 -39 -14 11 -26 28 -26 37 0 12 -3
13 -12 4 -23 -23 45 -72 103 -72 34 0 99 55 99 84 0 24 -6 20 -20 -14z"/>
<path d="M2905 5679 c-33 -5 -63 -10 -67 -11 -5 -2 64 -3 151 -3 88 0 150 3
139 8 -35 13 -159 16 -223 6z"/>
<path d="M2798 5653 c7 -3 16 -2 19 1 4 3 -2 6 -13 5 -11 0 -14 -3 -6 -6z"/>
<path d="M2836 5349 c51 -53 94 -123 94 -153 0 -8 5 -18 10 -21 14 -9 2 40
-21 85 -22 45 -84 117 -112 131 -12 6 1 -13 29 -42z"/>
<path d="M2224 5341 c4 -6 2 -11 -5 -11 -7 0 0 -13 16 -30 16 -16 35 -30 42
-30 8 0 11 -4 8 -10 -3 -6 1 -7 9 -4 21 8 20 14 -7 45 -23 27 -75 61 -63 40z"/>
<path d="M2393 5316 c-15 -13 -25 -28 -20 -32 4 -4 13 1 21 11 9 13 15 15 20
6 8 -12 26 -6 26 10 0 6 -6 7 -12 3 -9 -5 -9 -2 1 9 20 26 -4 21 -36 -7z"/>
<path d="M2717 5291 c-6 -23 -96 -53 -232 -77 -138 -25 -427 -9 -518 28 -21 8
-25 13 -15 19 9 6 5 9 -13 9 -14 0 -34 -9 -44 -20 -18 -19 -15 -50 5 -50 6 0
16 -4 23 -10 7 -5 37 -30 67 -56 117 -97 192 -123 355 -124 168 0 255 39 379
170 89 95 96 129 25 130 -18 0 -28 -6 -32 -19z m28 -52 c8 -12 -74 -91 -86
-83 -5 3 -21 -2 -36 -10 l-28 -15 35 5 35 5 -39 -35 c-69 -63 -131 -80 -281
-80 -140 0 -208 16 -276 65 -32 22 -32 23 -9 31 13 5 27 4 34 -1 6 -5 28 -9
48 -8 22 0 33 4 25 9 -6 4 -21 5 -33 2 -12 -3 -26 1 -34 10 -9 12 -16 13 -25
6 -8 -7 -21 -7 -36 -1 -29 11 -75 58 -66 67 3 4 55 1 114 -5 164 -17 324 -14
464 9 68 12 133 25 144 30 27 12 43 12 50 -1z"/>
<path d="M2548 5133 c7 -3 16 -2 19 1 4 3 -2 6 -13 5 -11 0 -14 -3 -6 -6z"/>
<path d="M2383 5244 c-3 -8 -12 -13 -19 -10 -8 3 -11 0 -7 -10 8 -21 18 -17
31 11 6 14 9 25 6 25 -2 0 -7 -7 -11 -16z"/>
<path d="M2313 5235 c0 -8 4 -12 9 -9 5 3 6 10 3 15 -9 13 -12 11 -12 -6z"/>
<path d="M3503 5117 c-7 -15 -13 -38 -13 -50 0 -19 1 -20 16 -6 10 10 14 29
12 50 l-3 34 -12 -28z"/>
<path d="M2482 4690 c0 -14 2 -19 5 -12 2 6 2 18 0 25 -3 6 -5 1 -5 -13z"/>
<path d="M2485 4648 c-9 -22 -3 -61 10 -65 6 -1 17 2 25 7 11 8 12 12 3 18 -7
4 -16 19 -22 32 -7 21 -10 22 -16 8z"/>
<path d="M2739 4477 c14 -15 29 -27 33 -27 10 0 -5 16 -37 40 -15 10 -14 7 4
-13z"/>
<path d="M3811 4924 c0 -11 3 -14 6 -6 3 7 2 16 -1 19 -3 4 -6 -2 -5 -13z"/>
<path d="M3090 4308 l-22 -33 25 29 26 30 44 -37 c46 -37 77 -52 41 -19 -34
31 -76 62 -85 62 -4 0 -17 -15 -29 -32z"/>
<path d="M2876 4085 c-11 -8 -17 -17 -14 -20 2 -3 13 4 23 15 21 23 18 25 -9
5z"/>
<path d="M1650 3720 c8 -5 20 -10 25 -10 6 0 3 5 -5 10 -8 5 -19 10 -25 10 -5
0 -3 -5 5 -10z"/>
<path d="M1715 3690 c4 -6 11 -8 16 -5 14 9 11 15 -7 15 -8 0 -12 -5 -9 -10z"/>
<path d="M1790 3663 c0 -10 40 -36 46 -30 3 2 -7 12 -21 21 -14 9 -25 13 -25
9z"/>
<path d="M2686 1308 c18 -33 57 -79 61 -74 8 7 -47 86 -59 86 -5 0 -6 -6 -2
-12z"/>
<path d="M1997 1219 c4 -13 8 -18 11 -10 2 7 -1 18 -6 23 -8 8 -9 4 -5 -13z"/>
<path d="M1786 1104 c-3 -8 -10 -12 -16 -9 -5 3 -10 -1 -10 -9 0 -8 5 -18 10
-21 6 -3 10 -13 10 -22 0 -24 90 -164 101 -158 22 14 -20 171 -58 214 -21 25
-29 26 -37 5z"/>
<path d="M2330 1113 c0 -11 39 -73 45 -73 3 0 -4 18 -15 40 -19 38 -30 49 -30
33z"/>
<path d="M2456 1088 c10 -21 21 -38 26 -38 14 0 8 14 -18 45 l-25 30 17 -37z"/>
<path d="M2950 1100 c-9 -6 -10 -10 -3 -10 6 0 15 5 18 10 8 12 4 12 -15 0z"/>
<path d="M2988 1103 c7 -3 16 -2 19 1 4 3 -2 6 -13 5 -11 0 -14 -3 -6 -6z"/>
<path d="M2070 1046 c0 -3 14 -32 30 -64 36 -72 37 -76 5 -69 -25 4 -25 4 -8
-17 30 -35 67 -66 81 -66 28 0 -1 108 -43 164 -25 33 -65 65 -65 52z"/>
<path d="M2141 503 c7 -12 15 -20 18 -17 3 2 -3 12 -13 22 -17 16 -18 16 -5
-5z"/>
<path d="M3955 599 c-4 -6 -5 -12 -2 -15 2 -3 7 2 10 11 7 17 1 20 -8 4z"/>
<path d="M3920 559 c0 -5 5 -7 10 -4 6 3 10 8 10 11 0 2 -4 4 -10 4 -5 0 -10
-5 -10 -11z"/>
<path d="M3880 535 c-7 -9 -11 -17 -9 -20 3 -2 10 5 17 15 14 24 10 26 -8 5z"/>
<path d="M3826 417 c3 -10 9 -15 12 -12 3 3 0 11 -7 18 -10 9 -11 8 -5 -6z"/>
<path d="M1905 8420 c3 -5 10 -10 15 -10 4 0 22 -12 39 -27 16 -15 39 -27 51
-28 11 -1 20 -1 20 0 0 2 7 19 15 39 l15 36 -80 0 c-52 0 -79 -4 -75 -10z"/>
<path d="M2170 8423 c0 -5 4 -14 9 -21 6 -10 13 -8 32 7 l24 20 -32 1 c-18 0
-33 -3 -33 -7z"/>
<path d="M2656 8408 c13 -43 33 -88 39 -88 9 0 145 91 151 102 3 4 -40 8 -96
8 -100 0 -101 0 -94 -22z"/>
<path d="M2952 8371 c-17 -32 -32 -63 -32 -69 0 -12 164 30 335 86 l120 40
-195 1 -195 1 -33 -59z"/>
<path d="M2812 7558 c-14 -18 -43 -76 -41 -85 0 -4 -8 -10 -18 -14 -30 -12 79
-3 124 10 58 16 64 31 12 31 -26 0 -50 -7 -63 -17 -20 -17 -20 -17 -7 0 9 12
10 17 2 17 -6 0 -14 -7 -17 -15 -4 -8 -10 -13 -14 -10 -5 3 2 25 16 50 23 45
26 57 6 33z"/>
<path d="M2764 7435 c-10 -8 -14 -15 -8 -15 5 0 19 7 30 15 10 8 14 15 8 15
-5 0 -19 -7 -30 -15z"/>
<path d="M2710 7425 c-9 -10 -9 -15 -1 -15 6 0 11 5 11 11 0 5 5 7 10 4 6 -3
10 -1 10 4 0 16 -16 13 -30 -4z"/>
<path d="M2633 7278 c-21 -24 -43 -59 -28 -46 4 4 14 3 21 -2 8 -8 22 -5 45 8
39 22 49 42 20 42 -12 0 -21 5 -21 10 0 17 -15 11 -37 -12z"/>
<path d="M2218 7283 c7 -3 16 -2 19 1 4 3 -2 6 -13 5 -11 0 -14 -3 -6 -6z"/>
<path d="M1427 7266 c-4 -10 -1 -13 8 -10 8 3 22 1 32 -5 17 -10 16 -10 -4
-11 -12 0 -25 -5 -28 -10 -4 -7 -12 -7 -25 0 -32 17 -36 -11 -6 -37 15 -13 26
-29 23 -36 -8 -21 30 -17 50 5 18 21 18 21 -2 14 -11 -4 -16 -4 -12 0 4 4 28
8 55 9 26 1 58 7 71 14 l23 13 -26 17 c-14 10 -24 19 -22 22 2 2 -10 5 -27 6
-17 1 -35 7 -41 13 -15 15 -63 12 -69 -4z m48 -46 c13 -6 15 -9 5 -9 -8 0 -22
4 -30 9 -18 12 -2 12 25 0z"/>
<path d="M3531 7237 c2 -1 13 -9 24 -17 19 -14 19 -14 6 3 -7 9 -18 17 -24 17
-6 0 -8 -1 -6 -3z"/>
<path d="M2128 7223 c6 -2 18 -2 25 0 6 3 1 5 -13 5 -14 0 -19 -2 -12 -5z"/>
<path d="M2185 7190 c3 -5 11 -10 16 -10 6 0 7 5 4 10 -3 6 -11 10 -16 10 -6
0 -7 -4 -4 -10z"/>
<path d="M1372 7081 c-17 -17 -32 -33 -32 -36 0 -4 10 2 23 14 12 12 31 28 42
36 11 8 15 15 10 15 -6 0 -25 -13 -43 -29z"/>
<path d="M1933 7036 c10 -8 34 -17 54 -21 19 -3 68 -19 108 -34 49 -19 72 -24
68 -15 -10 26 -168 85 -228 84 -19 -1 -19 -1 -2 -14z"/>
<path d="M3070 7008 c0 -34 9 -64 36 -115 20 -37 42 -75 50 -83 17 -17 15 -12
-50 155 l-35 90 -1 -47z"/>
<path d="M4460 7010 c0 -11 2 -20 4 -20 2 0 6 9 9 20 3 11 1 20 -4 20 -5 0 -9
-9 -9 -20z"/>
<path d="M2217 6929 c7 -7 15 -10 18 -7 3 3 -2 9 -12 12 -14 6 -15 5 -6 -5z"/>
<path d="M4120 6912 c0 -5 12 -12 28 -14 15 -3 44 -13 65 -22 46 -20 48 -14 3
12 -40 24 -96 38 -96 24z"/>
<path d="M4635 6741 c3 -5 -1 -12 -7 -14 -8 -4 -7 -6 4 -6 23 -1 32 15 12 23
-8 3 -13 2 -9 -3z"/>
<path d="M914 6659 c-3 -6 0 -18 9 -26 13 -13 14 -12 10 11 -6 29 -9 31 -19
15z"/>
<path d="M4707 6224 c22 -5 22 -5 -8 -52 -36 -57 -37 -95 -4 -127 41 -42 46
-34 43 78 -3 101 -3 102 -28 104 -21 1 -21 0 -3 -3z"/>
<path d="M4495 6099 c4 -6 4 -26 0 -45 l-6 -35 -67 5 c-53 4 -62 3 -42 -6 84
-35 117 -60 136 -103 l13 -30 1 34 c0 33 1 33 35 28 l34 -6 -37 32 c-20 17
-39 32 -41 34 -2 2 -3 25 -2 53 1 40 -2 50 -14 50 -9 0 -13 -5 -10 -11z"/>
<path d="M4718 5923 c7 -3 16 -2 19 1 4 3 -2 6 -13 5 -11 0 -14 -3 -6 -6z"/>
<path d="M99 5873 c-13 -16 -12 -17 4 -4 9 7 17 15 17 17 0 8 -8 3 -21 -13z"/>
<path d="M0 5625 c0 -8 2 -15 4 -15 2 0 6 7 10 15 3 8 1 15 -4 15 -6 0 -10 -7
-10 -15z"/>
<path d="M4733 5380 c0 -30 2 -43 4 -27 2 15 2 39 0 55 -2 15 -4 2 -4 -28z"/>
<path d="M220 5207 c0 -17 163 -331 167 -320 2 6 -27 74 -66 150 -66 130 -100
188 -101 170z"/>
<path d="M390 5204 c0 -7 9 -22 21 -35 16 -19 18 -20 10 -4 -17 34 -31 51 -31
39z"/>
<path d="M347 4869 c7 -7 15 -10 18 -7 3 3 -2 9 -12 12 -14 6 -15 5 -6 -5z"/>
<path d="M501 4774 c0 -11 3 -14 6 -6 3 7 2 16 -1 19 -3 4 -6 -2 -5 -13z"/>
<path d="M558 4663 c7 -3 16 -2 19 1 4 3 -2 6 -13 5 -11 0 -14 -3 -6 -6z"/>
<path d="M550 4646 c0 -2 7 -7 16 -10 8 -3 12 -2 9 4 -6 10 -25 14 -25 6z"/>
<path d="M0 3381 c0 -43 2 -49 19 -44 10 3 29 0 41 -7 20 -11 21 -10 9 12 -6
13 -25 38 -40 56 l-29 33 0 -50z"/>
<path d="M636 2934 c-6 -15 -4 -15 11 -3 10 7 20 15 22 16 2 2 -3 3 -11 3 -9
0 -19 -7 -22 -16z"/>
<path d="M681 2914 c0 -11 3 -14 6 -6 3 7 2 16 -1 19 -3 4 -6 -2 -5 -13z"/>
<path d="M595 2890 c-3 -5 -1 -10 4 -10 6 0 11 5 11 10 0 6 -2 10 -4 10 -3 0
-8 -4 -11 -10z"/>
<path d="M550 2873 c0 -11 -5 -24 -12 -31 -20 -20 -4 -22 21 -2 23 17 24 19 8
35 -16 15 -17 15 -17 -2z"/>
<path d="M773 2353 c-7 -3 -13 -9 -13 -14 0 -6 18 -8 45 -3 32 4 45 3 45 -5 0
-7 5 -9 11 -5 8 5 8 9 -2 14 -20 11 -72 18 -86 13z"/>
<path d="M4703 72 c-11 -15 -23 -37 -27 -50 -7 -20 -4 -22 28 -22 34 0 36 2
36 35 0 19 -4 35 -10 35 -5 0 -10 5 -10 11 0 5 5 7 10 4 6 -3 10 -1 10 4 0 19
-16 12 -37 -17z"/>
</g>
</svg>
